<?xml version="1.0" encoding="iso-8859-1"?>
<!-- Generator: Adobe Illustrator 18.0.0, SVG Export Plug-In . SVG Version: 6.00 Build 0)  -->
<!DOCTYPE svg PUBLIC "-//W3C//DTD SVG 1.1//EN" "http://www.w3.org/Graphics/SVG/1.1/DTD/svg11.dtd">
<svg version="1.1" id="Capa_1" xmlns="http://www.w3.org/2000/svg" xmlns:xlink="http://www.w3.org/1999/xlink" x="0px" y="0px"
	 viewBox="0 0 53.594 53.594" style="enable-background:new 0 0 53.594 53.594;" xml:space="preserve">
<g>
	<path d="M52.771,2.903L51.098,1.23c-1.063-1.061-2.923-1.061-3.983,0L30.577,17.767l1.973,1.973l-5.274,5.274
		c-2.912-2.737-6.519-4.488-10.484-5.052l-0.281,1.98c3.737,0.531,7.127,2.227,9.804,4.903c2.677,2.678,4.373,6.068,4.903,9.806
		l1.98-0.281c-0.527-3.711-2.088-7.112-4.53-9.921l5.295-5.295l2.269,2.27L52.771,6.887c0.53-0.531,0.823-1.238,0.823-1.992
		S53.302,3.433,52.771,2.903z M37.918,13.255l4.243,1.414l-0.54,0.54l-4.243-1.414L37.918,13.255z M33.405,17.767l2.392-2.391
		l4.243,1.414l-3.806,3.806L33.405,17.767z M51.357,5.472l-7.616,7.616l-4.243-1.414l9.031-9.03c0.305-0.307,0.847-0.307,1.153,0
		l1.674,1.673c0.153,0.153,0.237,0.358,0.237,0.578C51.594,5.114,51.51,5.319,51.357,5.472z"/>
	<path d="M15,23.16c-4.007,0-7.773,1.561-10.606,4.394S0,34.154,0,38.16c0,4.007,1.561,7.773,4.394,10.606S10.993,53.16,15,53.16
		s7.773-1.561,10.607-4.394C28.44,45.933,30,42.167,30,38.16c0-4.006-1.561-7.773-4.394-10.606C22.773,24.72,19.007,23.16,15,23.16z
		 M24.193,47.352c-2.456,2.455-5.72,3.808-9.193,3.808c-3.472,0-6.737-1.353-9.192-3.808C3.353,44.897,2,41.632,2,38.16
		c0-3.472,1.353-6.736,3.808-9.192c2.456-2.455,5.72-3.808,9.192-3.808c3.473,0,6.737,1.353,9.193,3.808
		C26.648,31.423,28,34.688,28,38.16C28,41.632,26.648,44.897,24.193,47.352z"/>
	<path d="M15,33.16c-1.336,0-2.591,0.521-3.536,1.465S10,36.824,10,38.16s0.52,2.591,1.464,3.535s2.2,1.465,3.536,1.465
		c1.335,0,2.591-0.521,3.535-1.465S20,39.496,20,38.16s-0.52-2.591-1.464-3.535S16.336,33.16,15,33.16z M17.122,40.281
		c-1.134,1.133-3.109,1.133-4.243,0C12.313,39.714,12,38.961,12,38.16s0.312-1.555,0.878-2.121c0.567-0.566,1.32-0.879,2.122-0.879
		c0.801,0,1.554,0.313,2.121,0.879C17.688,36.605,18,37.358,18,38.16S17.688,39.714,17.122,40.281z"/>
</g>
<g>
</g>
<g>
</g>
<g>
</g>
<g>
</g>
<g>
</g>
<g>
</g>
<g>
</g>
<g>
</g>
<g>
</g>
<g>
</g>
<g>
</g>
<g>
</g>
<g>
</g>
<g>
</g>
<g>
</g>
</svg>
