<?xml version="1.0" encoding="iso-8859-1"?>
<!-- Generator: Adobe Illustrator 18.0.0, SVG Export Plug-In . SVG Version: 6.00 Build 0)  -->
<!DOCTYPE svg PUBLIC "-//W3C//DTD SVG 1.1//EN" "http://www.w3.org/Graphics/SVG/1.1/DTD/svg11.dtd">
<svg version="1.1" id="Capa_1" xmlns="http://www.w3.org/2000/svg" xmlns:xlink="http://www.w3.org/1999/xlink" x="0px" y="0px"
	 viewBox="0 0 297 297" style="enable-background:new 0 0 297 297;" xml:space="preserve">
<g>
	<path d="M269.841,50.261C237.43,17.85,194.336,0,148.5,0C102.663,0,59.57,17.85,27.159,50.261
		c-3.004,3.005-3.753,7.591-1.86,11.396l114.35,229.86c1.671,3.359,5.1,5.483,8.852,5.483s7.181-2.124,8.852-5.483l114.35-229.86
		C273.594,57.852,272.845,53.265,269.841,50.261z M148.5,19.773c38.193,0,74.235,14.008,102.256,39.593l-7.65,15.378
		c-26.119-23.188-59.386-35.869-94.605-35.869c-35.221,0-68.488,12.681-94.606,35.87l-7.65-15.38
		C74.265,33.781,110.307,19.773,148.5,19.773z M90.714,147.303c-0.275-0.084-0.551-0.148-0.827-0.207l-14.165-28.474
		c1.817-5.673,5.693-10.337,10.965-13.138c5.362-2.854,11.516-3.444,17.327-1.67c5.808,1.774,10.574,5.705,13.426,11.067
		c2.85,5.363,3.442,11.516,1.663,17.327c-1.774,5.808-5.704,10.576-11.065,13.428C102.674,148.487,96.521,149.079,90.714,147.303z
		 M148.5,264.917l-48.221-96.932c5.886-0.402,11.676-2.038,17.041-4.89c10.027-5.332,17.375-14.249,20.691-25.105
		c3.322-10.859,2.217-22.361-3.112-32.389c-5.332-10.028-14.248-17.379-25.107-20.697c-10.858-3.318-22.36-2.211-32.389,3.121
		c-4.668,2.482-8.746,5.749-12.116,9.62l-2.217-4.456c23.042-22.286,53.293-34.541,85.431-34.541
		c32.137,0,62.387,12.254,85.43,34.54l-31.993,64.31c-6.707-11.268-19.007-18.839-33.046-18.839
		c-21.192,0-38.434,17.241-38.434,38.434s17.241,38.434,38.434,38.434c1.455,0,2.889-0.089,4.302-0.247L148.5,264.917z
		 M168.892,195.754c-10.29,0-18.66-8.371-18.66-18.661c0-10.29,8.37-18.661,18.66-18.661c10.29,0,18.661,8.371,18.661,18.661
		C187.553,187.383,179.182,195.754,168.892,195.754z"/>
	<path d="M190.448,114.754c1.931,1.931,4.461,2.896,6.991,2.896c2.53,0,5.059-0.966,6.991-2.896c3.86-3.86,3.86-10.121,0-13.981
		l-16.314-16.313c-3.861-3.859-10.12-3.859-13.981,0c-3.861,3.861-3.861,10.122,0,13.982L190.448,114.754z"/>
</g>
<g>
</g>
<g>
</g>
<g>
</g>
<g>
</g>
<g>
</g>
<g>
</g>
<g>
</g>
<g>
</g>
<g>
</g>
<g>
</g>
<g>
</g>
<g>
</g>
<g>
</g>
<g>
</g>
<g>
</g>
</svg>
