<?xml version="1.0" encoding="iso-8859-1"?>
<!-- Generator: Adobe Illustrator 18.0.0, SVG Export Plug-In . SVG Version: 6.00 Build 0)  -->
<!DOCTYPE svg PUBLIC "-//W3C//DTD SVG 1.1//EN" "http://www.w3.org/Graphics/SVG/1.1/DTD/svg11.dtd">
<svg version="1.1" id="Capa_1" xmlns="http://www.w3.org/2000/svg" xmlns:xlink="http://www.w3.org/1999/xlink" x="0px" y="0px"
	 viewBox="0 0 268.26 268.26" style="enable-background:new 0 0 268.26 268.26;" xml:space="preserve">
<g>
	<path d="M240.942,131.345c0.267-0.567,0.361-1.173,0.165-1.735c0.466-0.813,0.531-1.847-0.28-2.574
		c-6.319-5.669-13.244-10.87-20.315-15.558c-0.013-0.009-0.025,0.001-0.039-0.007c-0.348-0.338-0.823-0.567-1.463-0.547
		c-21.634,0.685-43.214,0.827-64.784,0.759c0.708-4.652,0.162-9.588,0.072-14.254c-0.105-5.459-0.183-10.891-0.917-16.307
		c-0.011-0.082-0.086-0.116-0.116-0.185c24.448-0.367,48.894-0.73,73.317-0.644c1.343,0.005,1.685-1.476,1.1-2.323
		c0.065-0.033,0.075-0.102,0.131-0.144c-0.003,0.066-0.007,0.132-0.008,0.198c-0.061,1.622,2.285,1.535,2.466,0
		c1.392-11.794,1.268-23.275,0.699-35.053c0.933-0.126,1.466-1.412,0.709-2.08c-0.251-0.222-0.552-0.353-0.824-0.539
		c-0.005-0.092-0.007-0.183-0.012-0.275c-0.048-0.878-1.004-1.111-1.55-0.734c-0.747-0.395-1.507-0.771-2.225-1.252
		c-1.897-1.273-3.413-2.88-4.915-4.578c-0.491-0.554-1.127-0.29-1.448,0.199c-0.417-0.42-0.944-0.745-1.717-0.747
		c-21.255-0.064-42.608-0.484-63.974-0.782c3.524-12.385,1.762-32.561-15.028-32.177c-16.505,0.376-21.563,18.77-16.891,31.897
		c-21.227-0.045-42.428,0.267-63.519,1.453c-0.08,0.005-0.105,0.07-0.18,0.082c-0.347,0.029-0.708,0.123-1.077,0.313
		C48.119,39.01,38.004,44.363,27.603,49.228c-0.526,0.246-0.858,0.76-1.082,1.33c-0.624,0.32-1.077,1.037-0.61,1.721
		c1.572,2.303,2.979,4.691,4.23,7.182c0.96,1.912,1.673,4.009,2.661,5.915c-0.656,0.397-0.868,1.58-0.049,2.048
		c7.095,4.054,13.663,8.696,20.159,13.628c0.731,0.554,1.546,0.231,2.018-0.383c0.141,0.061,0.287-0.011,0.437-0.005
		c0.124,0.339,0.366,0.631,0.852,0.641c22.048,0.46,44.122,0.322,66.2,0.064c-0.372,5.201-0.428,10.425-0.314,15.636
		c0.105,4.77-0.182,9.911,1.274,14.476c-19.699-0.198-39.402-0.451-59.15-0.592c-0.675-1.381-3.258-1.544-3.582,0.291
		c-2.087,11.821-2.652,24.635,1.521,36.038c-0.555,0.581-0.399,1.583,0.444,1.883c-0.014,0.234,0.052,0.483,0.245,0.712
		c2.399,2.856,4.659,6.112,7.519,8.518c0.449,0.378,1.033,0.335,1.537,0.136c0.055,0.558,0.419,1.094,1.162,1.14
		c16.42,1.039,32.991,1.355,49.604,1.287c-3.306,34.275-2.602,69.157-2.128,103.544c0.021,1.463,1.203,2.155,2.338,2.104
		c0.129,0.195,0.166,0.431,0.372,0.576c2.861,2.006,8.478,0.785,11.684,0.677c5.311-0.178,11.07,0.239,16.215-1.174
		c0.067-0.018,0.095-0.088,0.158-0.115c0.819,0.332,1.942-0.033,2.061-1.208c3.504-34.716,3.82-70.158,3.499-105.037
		c19.381-0.574,38.736-1.404,57.896-2.098c1.257-0.045,1.782-1.105,1.687-2.076c7.527-4.108,15.143-9.053,21.851-14.308
		C241.566,139.226,244.446,134.882,240.942,131.345z M221.387,36.13c1.705,2.718,4.456,5.519,7.488,6.507
		c0.031,11.285-0.564,22.616-1.008,33.893c-0.869-0.988-1.989-1.465-3.024-2.327c-1.381-1.15-2.285-2.588-3.137-4.147
		c0.353-0.314,0.613-0.724,0.616-1.279c0.048-10.173,0.511-21.17-0.781-31.245c-0.031-0.252-0.228-0.421-0.335-0.641
		C221.323,36.656,221.338,36.388,221.387,36.13z M140.736,4.657c14.34,0.592,11.474,17.782,10.353,27.477
		c-8.307-0.109-16.612-0.184-24.917-0.215c-0.003-0.02,0.012-0.03,0.008-0.051C124.053,21.24,126.169,4.056,140.736,4.657z
		 M54.402,71.86c-0.75,1.797-0.647,3.899-0.426,5.904c-5.297-4.739-11.401-8.473-17.885-11.348c0.002-0.035,0.028-0.049,0.027-0.085
		c-0.08-2.581-1.164-5.24-2.618-7.768c6.197,4.742,12.843,9.372,19.994,11.965c0.067,0.565,0.42,1.01,0.924,1.32
		C54.415,71.856,54.405,71.852,54.402,71.86z M55.671,68.139c-6.394-6.054-14.182-10.855-21.384-16.049
		c9.049-4.289,18.067-8.715,26.73-13.723c0.612-0.354,0.938-0.833,1.124-1.34c51.346,3.026,103.337,1.123,154.773,1.222
		c-1.259,9.091-0.357,19.203,1.235,28.333C164.27,64.903,109.405,63.14,55.671,68.139z M56.57,79.261
		c0.273-2.297,0.615-4.86-0.154-7.046c54.212,0.697,108.33-1.577,162.582,0.118c0.493,0.015,0.892-0.101,1.248-0.268
		c0.787,1.994,2.295,4.166,4.161,5.31C168.566,77.284,112.322,75.962,56.57,79.261z M150.494,111.681
		c-8.049-0.035-16.096-0.095-24.144-0.173c0.83-4.706-0.026-9.753-0.334-14.505c-0.339-5.222-0.642-10.453-1.162-15.662
		c8.861-0.109,17.723-0.246,26.585-0.379c-0.024,0.061-0.091,0.088-0.1,0.159c-0.735,5.417-0.812,10.848-0.918,16.307
		C150.332,102.094,149.786,107.03,150.494,111.681z M64.308,114.152c51.276,3.656,103.354,2.764,154.703,1.137
		c0.577-0.019,1.007-0.246,1.347-0.551c5.215,5.219,10.766,10.181,16.589,14.708c-2.983,2.105-5.875,4.402-8.545,6.871
		c-2.097,1.939-4.718,4.216-6.249,6.838c-0.354-0.338-0.829-0.57-1.469-0.552c-51.825,1.475-104.931-0.875-156.514,4.118
		C63.996,135.722,63.239,125.114,64.308,114.152z M150.472,263.191c-4.071-0.596-8.278-0.093-12.379,0.138
		c-2.1,0.118-4.204,0.207-6.301,0.354c-1.469,0.103-4.661,0.94-6.482,0.594c-0.083-0.173-0.21-0.305-0.365-0.406
		c-0.348-34.313,1.234-68.684,0.534-102.974c9.104-0.062,18.218-0.264,27.33-0.513C151.787,194.579,150.202,228.978,150.472,263.191
		z M225.343,146.372c-3.688,2.6-7.321,5.244-10.765,8.157c-47.147,1.93-94.439,0.565-141.505,2.577
		c-0.145,0.006-0.207,0.106-0.325,0.146c-0.021-0.207,0.005-0.409-0.163-0.629c-2.092-2.734-4.819-4.998-7.397-7.308
		c51.411,2.801,103.997-1.636,155.496-2.252c0.684-0.008,1.193-0.281,1.55-0.674c0.088-0.005,0.171,0.024,0.26-0.013
		c3.099-1.275,5.423-4.178,7.935-6.339c2.703-2.325,5.522-4.465,8.367-6.597C239.8,138.461,228.257,144.318,225.343,146.372z"/>
</g>
<g>
</g>
<g>
</g>
<g>
</g>
<g>
</g>
<g>
</g>
<g>
</g>
<g>
</g>
<g>
</g>
<g>
</g>
<g>
</g>
<g>
</g>
<g>
</g>
<g>
</g>
<g>
</g>
<g>
</g>
</svg>
