<?xml version="1.0" encoding="iso-8859-1"?>
<!-- Generator: Adobe Illustrator 19.0.0, SVG Export Plug-In . SVG Version: 6.00 Build 0)  -->
<svg version="1.1" id="Layer_1" xmlns="http://www.w3.org/2000/svg" xmlns:xlink="http://www.w3.org/1999/xlink" x="0px" y="0px"
	 viewBox="0 0 330.001 330.001" style="enable-background:new 0 0 330.001 330.001;" xml:space="preserve">
<g id="XMLID_351_">
	<path id="XMLID_352_" d="M314.018,90.041c-6.176-7.994-14.719-13.845-24.622-17.096l22.86-28.574
		c5.175-6.469,4.127-15.908-2.342-21.084c-6.469-5.175-15.908-4.126-21.083,2.342l-13.287,16.608L275.544,15c0-8.284-6.715-15-15-15
		h0c-8.284,0-14.999,6.716-15,15l-0.001,27.24L232.256,25.63c-5.174-6.468-14.614-7.518-21.083-2.343
		c-6.469,5.175-7.518,14.614-2.343,21.083l22.859,28.575c-9.902,3.252-18.445,9.102-24.621,17.096
		c-9.84,12.737-12.909,29.914-8.418,47.127l47.379,181.618c1.723,6.605,7.688,11.214,14.514,11.214
		c6.826,0,12.792-4.609,14.514-11.214l47.379-181.62C326.926,119.954,323.858,102.777,314.018,90.041z M260.543,255.576
		l-27.542-105.576h7.542c8.284,0,15-6.716,15-15c0-8.284-6.716-15-15-15h-13.882c0.272-4.429,1.663-8.401,4.147-11.617
		c4.176-5.406,11.185-8.383,19.734-8.383h20c8.55,0,15.559,2.977,19.735,8.382c4.176,5.405,5.288,12.938,3.129,21.211
		l-10.541,40.407h-2.324c-8.284,0-15,6.716-15,15c0,6.434,4.059,11.906,9.749,14.036L260.543,255.576z"/>
	<path id="XMLID_441_" d="M100.544,61.431v-46.42c0-8.284-6.716-15-15-15s-15,6.716-15,15v46.42
		C33.579,68.474,5.543,101.015,5.543,140c0,15.343,4.442,30.352,12.652,43.169c-3.388,8.504-5.152,17.624-5.152,26.831
		c0,13.152,3.458,25.747,10.07,36.877c-1.708,5.864-2.57,11.931-2.57,18.124c0,35.841,29.159,65,65,65s65-29.159,65-65
		c0-6.193-0.862-12.26-2.57-18.124c6.611-11.13,10.07-23.725,10.07-36.877c0-9.208-1.764-18.327-5.152-26.831
		c8.21-12.816,12.652-27.826,12.652-43.169C165.543,101.016,137.508,68.475,100.544,61.431z M100.544,201.331v-34.45l21.745,21.745
		c0.066,0.122,0.123,0.248,0.192,0.369c3.638,6.378,5.562,13.642,5.562,21.004c0,3.919-0.531,7.752-1.555,11.432L100.544,201.331z
		 M44.706,221.829c-1.098-3.8-1.663-7.769-1.663-11.829c0-6.76,1.64-13.428,4.722-19.413l22.779-22.78v33.611L44.706,221.829z
		 M135.543,140c0,5.69-0.984,11.304-2.851,16.604l-32.148-32.148V92.302C120.807,98.689,135.543,117.655,135.543,140z
		 M70.544,92.302v33.08l-31.906,31.906c-2.027-5.498-3.095-11.352-3.095-17.287C35.543,117.654,50.28,98.688,70.544,92.302z
		 M85.543,300.001c-19.299,0-35-15.701-35-35c0-3.754,0.593-7.419,1.755-10.938l33.336-26.333l32.842,25.446
		c1.366,3.789,2.067,7.754,2.067,11.826C120.543,284.3,104.842,300.001,85.543,300.001z"/>
</g>
<g>
</g>
<g>
</g>
<g>
</g>
<g>
</g>
<g>
</g>
<g>
</g>
<g>
</g>
<g>
</g>
<g>
</g>
<g>
</g>
<g>
</g>
<g>
</g>
<g>
</g>
<g>
</g>
<g>
</g>
</svg>
